<svg xmlns="http://www.w3.org/2000/svg" viewBox="0 0 100 60">
    <defs>
        <linearGradient id="fill" x1="0" y1="1" x2="0" y2="0">
            <stop offset="0" stop-color="#dc2626"/>
            <stop offset="0.45" stop-color="#dc2626"/>
            <stop offset="0.45" stop-color="#d1d5db"/>
            <stop offset="1" stop-color="#d1d5db"/>
        </linearGradient>
    </defs>
    <path d="M 5 12 L 55 12 L 58 16 L 62 14 L 68 13 L 82 12 L 85 14 L 84 18 L 82 22 L 80 28 L 78 34 L 78 38 L 82 45 L 80 48 L 77 44 L 75 40 L 68 42 L 58 42 L 48 40 L 42 42 L 40 45 L 38 48 L 34 48 L 30 47 L 26 45 L 20 43 L 15 42 L 12 40 L 10 35 L 8 28 L 9 20 L 6 15 Z"
          fill="url(#fill)" stroke="#374151" stroke-width="1" stroke-linejoin="round"/>
</svg>
